<svg data-v-423bf9ae="" xmlns="http://www.w3.org/2000/svg" viewBox="0 0 357 90" class="iconLeft"><!----><!----><!----><g data-v-423bf9ae="" id="509bd3a7-4088-4692-8faf-51fb93036f17" fill="black" transform="matrix(6.1037640351658435,0,0,6.1037640351658435,109.99999773091821,10.910478888641002)"><path d="M2.91 0.67L4.45 0.67L4.45 9.11L4.45 9.11Q4.45 9.65 4.12 10.02L4.12 10.02L4.12 10.02Q3.78 10.42 3.29 10.49L3.29 10.49L3.26 10.50L3.23 10.50L1.20 10.50L1.19 10.50L1.16 10.49L1.16 10.49Q0.67 10.42 0.34 10.02L0.34 10.02L0.34 10.02Q0 9.65 0 9.11L0 9.11L0 0.67L1.54 0.67L1.54 8.97L2.91 8.97L2.91 0.67ZM8.86 0.70L8.86 0.70L9.84 0.70L9.84 0.70L9.84 10.50L9.84 10.50L8.30 10.50L8.30 10.50L6.90 6.12L6.90 10.50L6.90 10.50L5.36 10.50L5.36 0.70L5.92 0.70L5.92 0.70L6.90 0.70L6.90 0.70L6.90 0.73L8.30 5.35L8.30 0.70L8.86 0.70L8.86 0.70ZM12.29 10.50L12.29 10.50L10.75 10.50L10.75 0.70L12.29 0.70L12.29 10.50ZM17.65 3.30L16.11 3.30L16.11 2.24L14.74 2.24L14.74 8.97L16.11 8.97L16.11 5.60L15.47 5.60L15.47 4.06L17.65 4.06L17.65 9.41L17.65 9.41Q17.65 9.81 17.39 10.12L17.39 10.12L17.39 10.12Q17.12 10.43 16.72 10.50L16.72 10.50L14.14 10.50L14.14 10.50Q13.73 10.43 13.47 10.12L13.47 10.12L13.47 10.12Q13.20 9.81 13.20 9.41L13.20 9.41L13.20 1.81L13.20 1.81Q13.20 1.40 13.47 1.08L13.47 1.08L13.47 1.08Q13.73 0.77 14.14 0.70L14.14 0.70L16.72 0.70L16.72 0.70Q17.12 0.77 17.39 1.08L17.39 1.08L17.39 1.08Q17.65 1.40 17.65 1.81L17.65 1.81L17.65 3.30ZM22.06 0.70L22.06 0.70L23.65 10.50L22.08 10.50L21.11 3.70L20.72 6.90L20.72 6.92L21.11 6.92L21.11 8.46L20.47 8.46L20.15 10.50L18.59 10.50L18.91 8.46L18.56 8.46L18.56 6.92L19.17 6.92L20.16 0.70L22.06 0.70ZM27.93 0.70L27.93 0.70L30.32 0.70L30.32 10.50L28.78 10.50L28.78 5.24L27.93 9.77L26.59 9.77L25.73 5.24L25.73 10.50L24.19 10.50L24.19 0.70L26.59 0.70L27.26 4.61L27.93 0.70ZM32.77 0.70L32.77 0.70L35.24 0.70L35.24 1.68L35.24 2.24L32.77 2.24L32.77 4.07L34.73 4.07L34.73 4.35L34.73 5.33L34.73 5.61L32.77 5.61L32.77 8.96L35.24 8.96L35.24 9.52L35.24 10.50L32.77 10.50L31.23 10.50L31.23 9.48L31.23 4.07L32.77 4.07L31.23 1.04L31.23 0.70L32.77 0.70ZM40.08 1.16L40.08 1.16L40.08 1.16Q40.42 1.57 40.42 2.07L40.42 2.07L40.42 3.12L40.42 3.40L40.14 3.40L39.16 3.40L38.88 3.40L38.88 3.12L38.88 2.23L37.70 2.23L37.70 3.98L37.70 4.05L39.02 4.05L39.02 4.05Q39.61 4.05 40.01 4.45L40.01 4.45L40.01 4.45Q40.42 4.86 40.42 5.45L40.42 5.45L40.42 6.85L40.42 9.11L40.42 9.11Q40.42 9.62 40.08 10.02L40.08 10.02L40.08 10.02Q39.75 10.40 39.24 10.49L39.24 10.49L39.21 10.50L39.20 10.50L37.37 10.50L37.35 10.50L37.32 10.49L37.32 10.49Q36.82 10.40 36.48 10.02L36.48 10.02L36.48 10.02Q36.15 9.62 36.15 9.11L36.15 9.11L36.15 8.06L36.15 7.78L36.43 7.78L37.42 7.78L37.70 7.78L37.70 8.06L37.70 8.96L38.88 8.96L38.88 5.60L37.55 5.60L37.55 5.60Q36.96 5.60 36.55 5.19L36.55 5.19L36.55 5.19Q36.15 4.79 36.15 4.20L36.15 4.20L36.15 4.10L36.15 3.98L36.15 2.07L36.15 2.07Q36.15 1.57 36.48 1.16L36.48 1.16L36.48 1.16Q36.82 0.78 37.32 0.70L37.32 0.70L37.35 0.70L37.37 0.70L39.20 0.70L39.21 0.70L39.24 0.70L39.24 0.70Q39.75 0.78 40.08 1.16Z"></path></g><!----><g data-v-423bf9ae="" id="3825e204-cf07-4795-9f42-554a3f3e047f" transform="matrix(2.8125,0,0,2.8125,0,0)" stroke="none" fill="black"><path d="M0 32h32V0H0v32zm19.377-19.492l6.936-6.936v20.855h-6.936V12.508zM5.688 5.572l6.936 6.936v13.919H5.688V5.572z"></path></g><!----></svg>